<svg width="17" height="17" viewBox="0 0 17 17" fill="none" xmlns="http://www.w3.org/2000/svg">
<path d="M1.0625 14.875C1.0625 15.4627 1.5373 15.9375 2.125 15.9375H14.875C15.4627 15.9375 15.9375 15.4627 15.9375 14.875V5.3125H1.0625V14.875ZM6.375 7.83594C6.375 7.6168 6.5543 7.4375 6.77344 7.4375H10.2266C10.4457 7.4375 10.625 7.6168 10.625 7.83594V8.10156C10.625 8.3207 10.4457 8.5 10.2266 8.5H6.77344C6.5543 8.5 6.375 8.3207 6.375 8.10156V7.83594ZM15.9375 1.0625H1.0625C0.474805 1.0625 0 1.5373 0 2.125V3.71875C0 4.01094 0.239062 4.25 0.53125 4.25H16.4688C16.7609 4.25 17 4.01094 17 3.71875V2.125C17 1.5373 16.5252 1.0625 15.9375 1.0625Z" fill="#858BB2"/>
</svg>
